<?xml version="1.0" encoding="utf-8"?>
<!-- Generator: Adobe Illustrator 22.1.0, SVG Export Plug-In . SVG Version: 6.00 Build 0)  -->
<svg version="1.1" id="Layer_1" xmlns="http://www.w3.org/2000/svg" xmlns:xlink="http://www.w3.org/1999/xlink" x="0px" y="0px"
	 viewBox="0 0 50 50" style="enable-background:new 0 0 50 50;" xml:space="preserve">
<style type="text/css">
	.st0{fill:#FFFFFF;}
</style>
<g>
	<path class="st0" d="M46.6,12.5c-2.2-3.8-5.3-6.9-9.1-9.1C33.7,1.1,29.5,0,25,0c-4.5,0-8.7,1.1-12.5,3.4c-3.8,2.2-6.9,5.3-9.1,9.1
		C1.1,16.3,0,20.5,0,25c0,4.5,1.1,8.7,3.4,12.5c2.2,3.8,5.3,6.9,9.1,9.1c3.8,2.2,8,3.4,12.6,3.4c4.5,0,8.7-1.1,12.5-3.4
		c3.8-2.2,6.9-5.3,9.1-9.1c2.2-3.8,3.4-8,3.4-12.5C50,20.5,48.9,16.3,46.6,12.5L46.6,12.5z M41.2,26.5L29.4,38.3l-3,3
		c-0.4,0.4-0.9,0.6-1.5,0.6c-0.6,0-1.1-0.2-1.5-0.6l-3-3L8.8,26.5c-0.4-0.4-0.6-0.9-0.6-1.5c0-0.6,0.2-1.1,0.6-1.5l3-3
		c0.4-0.4,0.9-0.6,1.5-0.6c0.6,0,1.1,0.2,1.5,0.6l6.2,6.2V10.4c0-0.6,0.2-1.1,0.6-1.5c0.4-0.4,0.9-0.6,1.5-0.6h4.2
		c0.6,0,1.1,0.2,1.5,0.6c0.4,0.4,0.6,0.9,0.6,1.5v16.3l6.2-6.2c0.4-0.4,0.9-0.6,1.5-0.6c0.6,0,1.1,0.2,1.5,0.6l3,3
		c0.4,0.4,0.6,0.9,0.6,1.5C41.8,25.6,41.6,26.1,41.2,26.5L41.2,26.5z M41.2,26.5"/>
</g>
</svg>
