<?xml version="1.0" encoding="utf-8"?>
<!-- Generator: Adobe Illustrator 22.1.0, SVG Export Plug-In . SVG Version: 6.00 Build 0)  -->
<svg version="1.1" id="Layer_1" xmlns="http://www.w3.org/2000/svg" xmlns:xlink="http://www.w3.org/1999/xlink" x="0px" y="0px"
	 viewBox="0 0 50 50" style="enable-background:new 0 0 50 50;" xml:space="preserve">
<style type="text/css">
	.st0{fill:#FFFFFF;}
</style>
<g>
	<path class="st0" d="M46.5,12.5c-2.2-3.8-5.3-6.8-9.1-9.1c-3.8-2.2-8-3.3-12.5-3.3c-4.5,0-8.7,1.1-12.5,3.3
		c-3.8,2.2-6.8,5.3-9.1,9.1C1.1,16.4,0,20.5,0,25.1c0,4.5,1.1,8.7,3.3,12.5c2.2,3.8,5.3,6.8,9.1,9.1c3.8,2.2,8,3.3,12.5,3.3
		c4.5,0,8.7-1.1,12.5-3.3c3.8-2.2,6.8-5.3,9.1-9.1c2.2-3.8,3.3-8,3.3-12.5C49.9,20.5,48.8,16.4,46.5,12.5L46.5,12.5z M41.1,26.5
		l-3,3c-0.4,0.4-0.9,0.6-1.5,0.6c-0.6,0-1.1-0.2-1.5-0.6l-6.1-6.1v16.3c0,0.6-0.2,1-0.6,1.5c-0.4,0.4-0.9,0.6-1.5,0.6h-4.2
		c-0.6,0-1.1-0.2-1.5-0.6c-0.4-0.4-0.6-0.9-0.6-1.5V23.3l-6.1,6.1c-0.4,0.4-0.9,0.6-1.5,0.6c-0.6,0-1.1-0.2-1.5-0.6l-3-3
		c-0.4-0.4-0.6-0.9-0.6-1.5c0-0.6,0.2-1.1,0.6-1.5l11.8-11.8l3-3c0.4-0.4,0.9-0.6,1.5-0.6c0.6,0,1.1,0.2,1.5,0.6l3,3l11.8,11.8
		c0.4,0.4,0.6,0.9,0.6,1.5C41.7,25.6,41.5,26.1,41.1,26.5L41.1,26.5z M41.1,26.5"/>
</g>
</svg>
