<?xml version="1.0" encoding="iso-8859-1"?>
<!-- Generator: Adobe Illustrator 21.1.0, SVG Export Plug-In . SVG Version: 6.00 Build 0)  -->
<svg version="1.1" id="Layer_1" xmlns="http://www.w3.org/2000/svg" xmlns:xlink="http://www.w3.org/1999/xlink" x="0px" y="0px"
	 viewBox="0 0 100 92.29" style="enable-background:new 0 0 100 92.29;" xml:space="preserve">
<g>
	<path style="fill:#FFFFFF;" d="M51.74,58.255c2.496,0,4.502-2.031,4.502-4.527c0-2.49-2.006-4.521-4.502-4.521L31.304,34.184
		L47.22,53.995C47.362,56.366,49.35,58.255,51.74,58.255L51.74,58.255z M51.74,58.255"/>
	<path style="fill:#FFFFFF;" d="M50,0C22.374,0,0,22.381,0,50.006c0,10.28,3.121,19.835,8.441,27.793h6.242l0.149,0.142l0.167-0.142
		h0.242c-0.025-0.05-0.05-0.099-0.099-0.124l8.664-7.568l-4.186-4.793l-8.081,7.066c-3.846-6.583-6.069-14.225-6.069-22.374
		c0-0.39,0.05-0.749,0.05-1.139l9.939-0.025v-6.335H6.143c1.332-7.766,4.595-14.832,9.364-20.659l6.967,6.967l4.496-4.502
		l-7.06-7.06C26.852,10.862,35.8,6.632,45.721,5.685v11.419h6.36V5.567c11.079,0.508,21.117,5.053,28.617,12.218l-7.233,7.252
		l4.502,4.502l7.041-7.041c4.471,5.71,7.567,12.534,8.85,20.009h-9.673v6.36h10.305c0,0.39,0.05,0.749,0.05,1.139
		c0,8.125-2.204,15.723-6.025,22.275l-7.599-7.592l-4.471,4.496l8.441,8.447c-0.025,0.043-0.074,0.118-0.118,0.167h6.793
		C96.885,69.842,100,60.286,100,50.006C100,22.381,77.626,0,50,0L50,0z M50,0"/>
	<rect x="27.26" y="80.555" style="fill:#FFFFFF;" width="45.065" height="11.735"/>
</g>
</svg>
