<?xml version="1.0" encoding="iso-8859-1"?>
<!-- Generator: Adobe Illustrator 21.1.0, SVG Export Plug-In . SVG Version: 6.00 Build 0)  -->
<svg version="1.1" id="Layer_1" xmlns="http://www.w3.org/2000/svg" xmlns:xlink="http://www.w3.org/1999/xlink" x="0px" y="0px"
	 viewBox="0 0 775.192 767.13" style="enable-background:new 0 0 775.192 767.13;" xml:space="preserve">
<g>
	<g>
		<defs>
			<rect id="SVGID_1_" width="775.192" height="768"/>
		</defs>
		<clipPath id="SVGID_2_">
			<use xlink:href="#SVGID_1_"  style="overflow:visible;"/>
		</clipPath>
		<path style="clip-path:url(#SVGID_2_);fill:#FFFFFF;" d="M50.882,280.014c4.072,13.964,9.726,27.434,16.875,40.072l-20.366,25.688
			c-6.654,8.399-5.903,20.371,1.579,27.938l35.083,35.083c7.567,7.567,19.539,8.233,27.938,1.579l25.522-20.2
			c13.137,7.563,27.101,13.465,41.651,17.622l3.824,32.842c1.25,10.64,10.23,18.624,20.87,18.624h49.636
			c10.64,0,19.62-7.985,20.866-18.624l3.658-31.677c15.629-4.072,30.596-10.141,44.646-18.04l24.69,19.538
			c8.399,6.65,20.371,5.903,27.938-1.579l35.083-35.087c7.567-7.567,8.233-19.539,1.579-27.934l-19.201-24.361
			c7.981-13.802,14.217-28.515,18.374-43.896l29.593-3.411c10.644-1.246,18.625-10.225,18.625-20.866v-49.635
			c0-10.641-7.981-19.62-18.625-20.867l-29.18-3.41c-3.991-15.215-9.979-29.764-17.627-43.401l17.959-22.696
			c6.65-8.396,5.903-20.367-1.579-27.934l-35.002-35.002c-7.567-7.567-19.539-8.233-27.938-1.58l-22.031,17.46
			c-14.298-8.399-29.598-14.801-45.641-19.124l-3.325-28.515C275.107,7.98,266.127,0,255.487,0h-49.636
			c-10.64,0-19.62,7.98-20.866,18.624l-3.325,28.515c-16.462,4.408-32.176,11.059-46.806,19.786l-22.863-18.122
			c-8.399-6.653-20.371-5.902-27.938,1.58L48.97,85.465c-7.567,7.567-8.233,19.539-1.579,27.938l19.12,24.19
			c-7.648,13.802-13.47,28.518-17.294,43.814l-30.592,3.495C7.981,186.15,0,195.129,0,205.77v49.635
			c0,10.641,7.981,19.62,18.625,20.866L50.882,280.014z M230.712,145.741c45.228,0,82.06,36.832,82.06,82.06
			c0,45.227-36.832,82.06-82.06,82.06s-82.06-36.833-82.06-82.06C148.652,182.573,185.484,145.741,230.712,145.741L230.712,145.741z
			 M230.712,145.741"/>
		<path style="clip-path:url(#SVGID_2_);fill:#FFFFFF;" d="M721.4,292.234l-26.188-22.113c-8.067-6.82-19.952-6.487-27.605,0.747
			l-14.464,13.551c-12.222-5.902-25.193-10.059-38.578-12.471l-4.072-19.952c-2.078-10.311-11.643-17.46-22.116-16.628
			l-34.169,2.911c-10.478,0.913-18.706,9.475-19.039,20.033l-0.666,20.286c-13.136,4.741-25.522,11.224-36.832,19.371
			l-17.294-11.472c-8.809-5.821-20.533-4.157-27.349,3.91l-22.116,26.354c-6.821,8.062-6.488,19.953,0.746,27.601l15.134,16.128
			c-5.241,11.806-8.98,24.196-11.144,36.914l-21.617,4.409c-10.307,2.078-17.455,11.638-16.628,22.116l2.911,34.169
			c0.913,10.474,9.479,18.706,20.038,19.04l23.363,0.746c4.238,11.14,9.807,21.698,16.543,31.592l-13.052,19.705
			c-5.821,8.813-4.157,20.536,3.906,27.353l26.192,22.116c8.062,6.816,19.952,6.484,27.601-0.75l17.127-16.044
			c11.225,5.237,23.03,9.146,35.168,11.472l4.738,23.444c2.078,10.311,11.643,17.46,22.116,16.628l34.169-2.907
			c10.478-0.918,18.706-9.479,19.039-20.038l0.751-22.949c12.471-4.405,24.276-10.392,35.168-17.79l18.873,12.471
			c8.809,5.818,20.533,4.157,27.349-3.909l22.117-26.188c6.815-8.067,6.487-19.953-0.747-27.601l-15.216-16.129
			c5.57-11.809,9.645-24.28,11.972-37.083l20.785-4.238c10.311-2.079,17.459-11.64,16.628-22.117l-2.911-34.168
			c-0.914-10.475-9.475-18.706-20.034-19.04l-20.87-0.665c-4.324-12.138-10.141-23.611-17.375-34.254l11.391-17.124
			C731.128,310.859,729.467,299.053,721.4,292.234L721.4,292.234z M592.615,489.775c-36.913,3.158-69.503-24.362-72.581-61.275
			c-3.158-36.914,24.362-69.503,61.275-72.581c36.914-3.158,69.503,24.361,72.581,61.275
			C657.048,454.107,629.534,486.698,592.615,489.775L592.615,489.775z M592.615,489.775"/>
	</g>
	<path style="fill:#FFFFFF;" d="M170.436,581.727c-10.473,1.08-18.54,9.894-18.625,20.452l-0.247,21.032
		c-0.166,10.559,7.648,19.539,18.125,20.87l15.463,1.993c2.578,9.394,6.235,18.374,10.973,26.854l-9.975,12.305
		c-6.653,8.233-6.154,20.038,1.246,27.604l14.716,15.045c7.401,7.567,19.206,8.399,27.601,1.912l12.39-9.56
		c8.728,5.156,17.955,9.231,27.601,12.056l1.664,15.963c1.08,10.474,9.894,18.539,20.452,18.624l21.032,0.248
		c10.559,0.166,19.539-7.649,20.87-18.126l1.912-15.129c10.474-2.578,20.452-6.484,29.931-11.639l11.638,9.395
		c8.229,6.649,20.033,6.153,27.601-1.247l15.048-14.716c7.567-7.4,8.395-19.205,1.912-27.604l-8.895-11.554
		c5.485-9.145,9.727-18.873,12.637-29.099l13.799-1.412c10.478-1.084,18.54-9.897,18.625-20.452l0.247-21.036
		c0.166-10.559-7.648-19.539-18.122-20.866l-13.47-1.746c-2.577-10.144-6.402-19.957-11.39-29.099l8.399-10.31
		c6.649-8.233,6.15-20.039-1.251-27.601l-14.716-15.049c-7.396-7.567-19.201-8.399-27.6-1.911l-10.06,7.729
		c-9.479-5.736-19.62-10.141-30.264-13.133l-1.327-13.055c-1.084-10.473-9.898-18.54-20.452-18.621l-21.036-0.252
		c-10.559-0.166-19.539,7.648-20.866,18.125l-1.665,12.971c-10.973,2.825-21.532,7.149-31.344,12.803l-10.392-8.48
		c-8.229-6.654-20.038-6.154-27.601,1.246l-15.133,14.797c-7.564,7.4-8.395,19.206-1.912,27.605l8.898,11.472
		c-5.156,9.146-9.231,18.873-11.89,29.099L170.436,581.727z M306.203,557.946c30.179,0.334,54.373,25.194,54.041,55.373
		c-0.334,30.179-25.194,54.373-55.373,54.041c-30.179-0.334-54.373-25.19-54.041-55.373
		C251.164,581.808,276.025,557.614,306.203,557.946L306.203,557.946z M306.203,557.946"/>
</g>
</svg>
